<?xml version="1.0" encoding="utf-8"?>
<!-- Generator: Adobe Illustrator 19.1.0, SVG Export Plug-In . SVG Version: 6.00 Build 0)  -->
<svg version="1.1" id="Layer_1" xmlns="http://www.w3.org/2000/svg" xmlns:xlink="http://www.w3.org/1999/xlink" x="0px" y="0px"
	 viewBox="0 0 320 320" style="enable-background:new 0 0 320 320;" xml:space="preserve">
<style type="text/css">
	.st0{fill:#9D9D9D;}
	.st1{fill-rule:evenodd;clip-rule:evenodd;fill:#FAA629;}
	.st2{fill:#757576;}
</style>
<g>
	<path class="st0" d="M106,21c0.6,0,1-0.5,1-1v-6c0-0.5-0.4-1-1-1s-1,0.5-1,1v6C105,20.5,105.4,21,106,21z"/>
	<path class="st0" d="M122,13c-0.6,0-1,0.5-1,1v6c0,0.5,0.4,1,1,1s1-0.5,1-1v-6C123,13.5,122.6,13,122,13z"/>
	<path class="st0" d="M122,5c-3.5,0-6.5,2-8,4.9C112.5,7,109.5,5,106,5s-6.5,2-8,4.9C96.5,7,93.5,5,90,5s-6.5,2-8,4.9
		C80.5,7,77.5,5,74,5s-6.5,2-8,4.9C64.5,7,61.5,5,58,5c-5,0-9,4-9,9v18c0,5,4,9,9,9c2.8,0,5.3-1.3,7-3.3V47c0,2.8,2.2,5,5,5
		s5-2.2,5-5v-6c3.1-0.3,5.7-2.2,7-4.8c1.5,2.9,4.5,4.9,8,4.9s6.5-2,8-4.9c1.5,2.9,4.5,4.9,8,4.9s6.5-2,8-4.9c1.5,2.9,4.5,4.9,8,4.9
		c4.9,0,9-4,9-9V14C131,9,126.9,5,122,5z M58,39c-3.8,0-7-3.2-7-7V14c0-3.9,3.2-7,7-7s7,3.1,7,7l0,0v18l0,0C65,35.8,61.8,39,58,39z
		 M74,39c-0.3,0-0.7,0-1-0.1V47c0,1.7-1.3,3-3,3s-3-1.3-3-3V32V14c0-3.9,3.2-7,7-7s7,3.1,7,7l0,0v18l0,0C81,35.8,77.8,39,74,39z
		 M89.7,39c-3.8-0.2-6.7-3.5-6.7-7.2V29c0-0.5,0.4-1,1-1h4c0.6,0,1,0.5,1,1v3c0,0.5,0.3,1,0.8,1c0.7,0.1,1.2-0.4,1.2-1v-3
		c0-1.7-1.3-3-3-3h-0.5C85,26,83,24,83,21.5v-7.3c0-3.8,2.9-7,6.7-7.2c4-0.2,7.3,3,7.3,7l0,0v3c0,0.5-0.4,1-1,1h-4c-0.6,0-1-0.5-1-1
		v-3c0-0.5-0.3-1-0.8-1c-0.7-0.1-1.2,0.4-1.2,1v3c0,1.7,1.3,3,3,3h0.5c2.5,0,4.5,2,4.5,4.5V32l0,0C97,36,93.7,39.2,89.7,39z
		 M105.7,39c-3.8-0.2-6.7-3.5-6.7-7.2V14.2c0-3.8,2.9-7,6.7-7.2c4-0.2,7.3,3,7.3,7l0,0v12c0,0.5-0.4,1-1,1h-4c-1.7,0-3,1.3-3,3v2
		c0,0.5,0.3,1,0.8,1c0.7,0.1,1.2-0.4,1.2-1v-2.3c0-0.5,0.4-1,1-1h4c0.6,0,1,0.5,1,1V32l0,0C113,36,109.7,39.2,105.7,39z M129,26
		c0,0.5-0.4,1-1,1h-4c-1.7,0-3,1.3-3,3v2c0,0.5,0.3,1,0.8,1c0.7,0.1,1.2-0.4,1.2-1v-2.3c0-0.5,0.4-1,1-1h4c0.6,0,1,0.5,1,1V32
		c0,4-3.3,7.2-7.3,7c-3.8-0.2-6.7-3.5-6.7-7.2V14.2c0-3.8,2.9-7,6.7-7.2c4-0.2,7.3,3,7.3,7V26z"/>
	<path class="st0" d="M74,13c-0.6,0-1,0.5-1,1v18c0,0.5,0.4,1,1,1s1-0.5,1-1V14C75,13.5,74.6,13,74,13z"/>
	<path class="st0" d="M58,13c-0.5,0-1,0.5-1,1v18c0,0.5,0.5,1,1,1s1-0.5,1-1V14C59,13.5,58.5,13,58,13z"/>
</g>
<polygon class="st0" points="91,135.7 91,55.7 100.1,65.4 102.3,63.4 90,50.2 77.7,63.4 79.9,65.4 88,56.7 88,134.6 79.9,125.9 
	77.7,128 90,141.2 102.3,128 100.1,125.9 "/>
<polygon class="st0" points="176.8,168.2 174.8,170.4 184,179 146,179 155.2,170.4 153.2,168.2 140,180.5 153.2,192.8 155.2,190.6 
	146,182 184,182 174.8,190.6 176.8,192.8 190,180.5 "/>
<g>
	<path class="st0" d="M90,213.4c-17.8,0-32.2-14.5-32.2-32.2c0-17.8,14.5-32.3,32.2-32.3s32.2,14.5,32.2,32.3
		C122.2,198.9,107.8,213.4,90,213.4z M90,153.4c-15.3,0-27.8,12.4-27.8,27.8s12.4,27.8,27.8,27.8s27.8-12.4,27.8-27.8
		S105.3,153.4,90,153.4z"/>
</g>
<g>
	<g>
		<path class="st0" d="M53.7,229.3H52v2.9h-2.2v-9.8h4c2.3,0,3.8,1.4,3.8,3.4v0C57.6,228.1,55.9,229.3,53.7,229.3z M55.5,225.9
			c0-1-0.7-1.5-1.8-1.5H52v3h1.7C54.8,227.4,55.5,226.8,55.5,225.9L55.5,225.9z"/>
		<path class="st0" d="M63.7,232.3v-1.1c-0.5,0.6-1.1,1.2-2.2,1.2c-1.6,0-2.5-1.1-2.5-2.8v-4.9h2.1v4.2c0,1,0.5,1.5,1.3,1.5
			s1.3-0.5,1.3-1.5v-4.2h2.1v7.5H63.7z"/>
		<path class="st0" d="M72.2,232.4c-1.1,0-1.8-0.5-2.3-1.1v1h-2.1V222h2.1v3.8c0.5-0.7,1.2-1.2,2.3-1.2c1.8,0,3.4,1.4,3.4,3.9v0
			C75.6,231,74,232.4,72.2,232.4z M73.5,228.5c0-1.2-0.8-2.1-1.8-2.1s-1.8,0.8-1.8,2.1v0c0,1.2,0.8,2.1,1.8,2.1
			S73.5,229.8,73.5,228.5L73.5,228.5z"/>
		<path class="st0" d="M77.3,232.3V222h2.1v10.2H77.3z"/>
		<path class="st0" d="M81.5,223.9V222h2.2v1.9H81.5z M81.5,232.3v-7.5h2.1v7.5H81.5z"/>
		<path class="st0" d="M89.2,232.4c-2.3,0-3.9-1.7-3.9-3.9v0c0-2.1,1.6-3.9,3.9-3.9c1.4,0,2.3,0.5,3,1.3l-1.3,1.4
			c-0.5-0.5-1-0.8-1.7-0.8c-1.1,0-1.8,0.9-1.8,2v0c0,1.1,0.7,2.1,1.9,2.1c0.7,0,1.2-0.3,1.7-0.8l1.2,1.3
			C91.5,231.9,90.7,232.4,89.2,232.4z"/>
		<path class="st0" d="M100.3,221.1l-6.2,13h-1.8l6.2-13H100.3z"/>
		<path class="st0" d="M108.2,232.3l-4.7-6.2v6.2h-2.1v-9.8h2l4.6,6v-6h2.1v9.8H108.2z"/>
		<path class="st0" d="M119.6,232.3l-0.9-2.2h-4.1l-0.9,2.2h-2.2l4.2-9.9h2l4.2,9.9H119.6z M116.7,225l-1.3,3.2h2.6L116.7,225z"/>
		<path class="st0" d="M127.8,224.4v7.8h-2.2v-7.8h-3v-2h8.1v2H127.8z"/>
		<path class="st0" d="M69.5,249.2c-1.5,0-3-0.5-4.2-1.6l1.3-1.5c0.9,0.7,1.8,1.2,2.9,1.2c0.9,0,1.4-0.3,1.4-0.9v0
			c0-0.5-0.3-0.8-2-1.2c-2-0.5-3.2-1-3.2-3v0c0-1.8,1.4-3,3.4-3c1.4,0,2.6,0.4,3.6,1.2l-1.1,1.6c-0.9-0.6-1.7-1-2.5-1
			c-0.8,0-1.3,0.4-1.3,0.9v0c0,0.6,0.4,0.9,2.1,1.3c2,0.5,3.1,1.2,3.1,2.9v0C73.1,248.1,71.7,249.2,69.5,249.2z"/>
		<path class="st0" d="M79.5,249.1V248c-0.5,0.6-1.1,1.2-2.2,1.2c-1.6,0-2.5-1.1-2.5-2.8v-4.9h2.1v4.2c0,1,0.5,1.5,1.3,1.5
			s1.3-0.5,1.3-1.5v-4.2h2.1v7.5H79.5z"/>
		<path class="st0" d="M88,249.2c-1.1,0-1.8-0.5-2.3-1.1v1h-2.1v-10.2h2.1v3.8c0.5-0.7,1.2-1.2,2.3-1.2c1.8,0,3.4,1.4,3.4,3.9v0
			C91.4,247.8,89.8,249.2,88,249.2z M89.3,245.3c0-1.2-0.8-2.1-1.8-2.1s-1.8,0.8-1.8,2.1v0c0,1.2,0.8,2.1,1.8,2.1
			S89.3,246.6,89.3,245.3L89.3,245.3z"/>
		<path class="st0" d="M97.7,249.1v-4.2c0-1-0.5-1.5-1.3-1.5c-0.8,0-1.3,0.5-1.3,1.5v4.2H93v-7.5h2.1v1.1c0.5-0.6,1.1-1.2,2.2-1.2
			c1.6,0,2.5,1.1,2.5,2.8v4.9H97.7z"/>
		<path class="st0" d="M108.7,246h-5.2c0.2,1,0.9,1.5,1.8,1.5c0.7,0,1.2-0.2,1.8-0.8l1.2,1.1c-0.7,0.9-1.7,1.4-3.1,1.4
			c-2.3,0-3.9-1.6-3.9-3.9v0c0-2.1,1.5-3.9,3.7-3.9c2.5,0,3.7,1.9,3.7,4.1v0C108.7,245.7,108.7,245.9,108.7,246z M105,243.1
			c-0.9,0-1.5,0.6-1.6,1.6h3.2C106.5,243.8,105.9,243.1,105,243.1z"/>
		<path class="st0" d="M112.8,249.2c-1.3,0-2.2-0.5-2.2-2.3v-3.6h-0.9v-1.8h0.9v-1.9h2.1v1.9h1.8v1.8h-1.8v3.2
			c0,0.5,0.2,0.7,0.7,0.7c0.4,0,0.7-0.1,1.1-0.3v1.7C114,249,113.5,249.2,112.8,249.2z"/>
	</g>
</g>
<g>
	<path class="st0" d="M240,213.4c-17.8,0-32.2-14.5-32.2-32.2c0-17.8,14.5-32.3,32.2-32.3s32.2,14.5,32.2,32.3
		C272.2,198.9,257.8,213.4,240,213.4z M240,153.4c-15.3,0-27.8,12.4-27.8,27.8s12.4,27.8,27.8,27.8s27.8-12.4,27.8-27.8
		S255.3,153.4,240,153.4z"/>
</g>
<g>
	<g>
		<path class="st0" d="M219.7,229.3h-1.6v2.9h-2.2v-9.8h4c2.3,0,3.8,1.4,3.8,3.4v0C223.7,228.1,221.9,229.3,219.7,229.3z
			 M221.5,225.9c0-1-0.7-1.5-1.8-1.5h-1.7v3h1.7C220.9,227.4,221.5,226.8,221.5,225.9L221.5,225.9z"/>
		<path class="st0" d="M229.5,226.8c-1.4,0-2.3,0.9-2.3,2.6v2.8H225v-7.5h2.1v1.5c0.4-1,1.1-1.7,2.4-1.7v2.2H229.5z"/>
		<path class="st0" d="M230.9,223.9V222h2.2v1.9H230.9z M231,232.3v-7.5h2.1v7.5H231z"/>
		<path class="st0" d="M239.3,232.3h-1.9l-3-7.6h2.3l1.7,5l1.7-5h2.2L239.3,232.3z"/>
		<path class="st0" d="M247.9,232.3v-0.8c-0.5,0.6-1.2,1-2.3,1c-1.4,0-2.6-0.8-2.6-2.3v0c0-1.6,1.2-2.4,3-2.4c0.8,0,1.3,0.1,1.8,0.3
			v-0.1c0-0.9-0.5-1.4-1.6-1.4c-0.8,0-1.4,0.2-2.1,0.4l-0.5-1.6c0.8-0.4,1.6-0.6,2.9-0.6c2.3,0,3.3,1.2,3.3,3.2v4.4H247.9z
			 M248,229.2c-0.4-0.2-0.8-0.3-1.4-0.3c-0.9,0-1.5,0.4-1.5,1v0c0,0.6,0.5,0.9,1.2,0.9c1,0,1.7-0.5,1.7-1.3V229.2z"/>
		<path class="st0" d="M254.4,232.4c-1.3,0-2.2-0.5-2.2-2.3v-3.6h-0.9v-1.8h0.9v-1.9h2.1v1.9h1.8v1.8h-1.8v3.2
			c0,0.5,0.2,0.7,0.7,0.7c0.4,0,0.7-0.1,1.1-0.3v1.7C255.6,232.2,255.1,232.4,254.4,232.4z"/>
		<path class="st0" d="M264.6,229.2h-5.2c0.2,1,0.9,1.5,1.8,1.5c0.7,0,1.2-0.2,1.8-0.8l1.2,1.1c-0.7,0.9-1.7,1.4-3.1,1.4
			c-2.3,0-3.9-1.6-3.9-3.9v0c0-2.1,1.5-3.9,3.7-3.9c2.5,0,3.7,1.9,3.7,4.1v0C264.6,228.9,264.6,229.1,264.6,229.2z M261,226.3
			c-0.9,0-1.5,0.6-1.6,1.6h3.2C262.4,227,261.9,226.3,261,226.3z"/>
		<path class="st0" d="M219.5,249.2c-1.5,0-3-0.5-4.2-1.6l1.3-1.5c0.9,0.7,1.8,1.2,2.9,1.2c0.9,0,1.4-0.3,1.4-0.9v0
			c0-0.5-0.3-0.8-2-1.2c-2-0.5-3.2-1-3.2-3v0c0-1.8,1.4-3,3.4-3c1.4,0,2.6,0.4,3.6,1.2l-1.1,1.6c-0.9-0.6-1.7-1-2.5-1
			s-1.3,0.4-1.3,0.9v0c0,0.6,0.4,0.9,2.1,1.3c2,0.5,3.1,1.2,3.1,2.9v0C223.1,248.1,221.7,249.2,219.5,249.2z"/>
		<path class="st0" d="M229.5,249.1V248c-0.5,0.6-1.1,1.2-2.2,1.2c-1.6,0-2.5-1.1-2.5-2.8v-4.9h2.1v4.2c0,1,0.5,1.5,1.3,1.5
			s1.3-0.5,1.3-1.5v-4.2h2.1v7.5H229.5z"/>
		<path class="st0" d="M238,249.2c-1.1,0-1.8-0.5-2.3-1.1v1h-2.1v-10.2h2.1v3.8c0.5-0.7,1.2-1.2,2.3-1.2c1.8,0,3.4,1.4,3.4,3.9v0
			C241.4,247.8,239.8,249.2,238,249.2z M239.3,245.3c0-1.2-0.8-2.1-1.8-2.1s-1.8,0.8-1.8,2.1v0c0,1.2,0.8,2.1,1.8,2.1
			S239.3,246.6,239.3,245.3L239.3,245.3z"/>
		<path class="st0" d="M247.7,249.1v-4.2c0-1-0.5-1.5-1.3-1.5c-0.8,0-1.3,0.5-1.3,1.5v4.2H243v-7.5h2.1v1.1c0.5-0.6,1.1-1.2,2.2-1.2
			c1.6,0,2.5,1.1,2.5,2.8v4.9H247.7z"/>
		<path class="st0" d="M258.7,246h-5.2c0.2,1,0.9,1.5,1.8,1.5c0.7,0,1.2-0.2,1.8-0.8l1.2,1.1c-0.7,0.9-1.7,1.4-3.1,1.4
			c-2.3,0-3.9-1.6-3.9-3.9v0c0-2.1,1.5-3.9,3.7-3.9c2.5,0,3.7,1.9,3.7,4.1v0C258.7,245.7,258.7,245.9,258.7,246z M255,243.1
			c-0.9,0-1.5,0.6-1.6,1.6h3.2C256.5,243.8,255.9,243.1,255,243.1z"/>
		<path class="st0" d="M262.8,249.2c-1.3,0-2.2-0.5-2.2-2.3v-3.6h-0.9v-1.8h0.9v-1.9h2.1v1.9h1.8v1.8h-1.8v3.2
			c0,0.5,0.2,0.7,0.7,0.7c0.4,0,0.7-0.1,1.1-0.3v1.7C264,249,263.5,249.2,262.8,249.2z"/>
	</g>
</g>
<circle class="st1" cx="90" cy="181.2" r="18"/>
<g>
	<path class="st2" d="M133.7,300.2h-1.1v-3.9l-4.1-5.9h1.3l3.3,4.9l3.3-4.9h1.3l-4.1,5.9V300.2z"/>
	<path class="st2" d="M141.2,300.4c-2.2,0-3.8-1.7-3.8-3.8c0-2.1,1.6-3.8,3.8-3.8c2.2,0,3.8,1.7,3.8,3.8
		C145,298.7,143.3,300.4,141.2,300.4z M141.2,293.8c-1.6,0-2.6,1.2-2.6,2.8c0,1.6,1.1,2.8,2.7,2.8c1.6,0,2.7-1.2,2.7-2.8
		C143.8,295,142.7,293.8,141.2,293.8z"/>
	<path class="st2" d="M152,293h1.1v7.2H152V299c-0.5,0.8-1.2,1.4-2.5,1.4c-1.8,0-2.8-1.2-2.8-2.9V293h1.1v4.2c0,1.3,0.7,2.2,2,2.2
		c1.2,0,2.2-0.9,2.2-2.3V293z"/>
	<path class="st2" d="M156.6,300.2h-1.1V293h1.1v1.9c0.5-1.2,1.6-2.1,3-2v1.2h-0.1c-1.6,0-2.9,1.1-2.9,3.3V300.2z"/>
	<path class="st2" d="M173,290.4h1.2l-4.2,9.9h-1l-4.2-9.9h1.2l3.5,8.4L173,290.4z"/>
	<path class="st2" d="M178.3,296.8h-2.4v3.5h-1.1v-9.8h3.7c2.2,0,3.7,1.2,3.7,3.1C182.2,295.7,180.4,296.8,178.3,296.8z
		 M178.4,291.4h-2.5v4.3h2.4c1.6,0,2.7-0.9,2.7-2.2C181,292.2,180,291.4,178.4,291.4z"/>
	<path class="st2" d="M187.4,300.4c-2.8,0-4.9-2.2-4.9-5.1c0-2.8,2.1-5.1,5-5.1c1.8,0,2.8,0.6,3.8,1.6l-0.8,0.8
		c-0.8-0.8-1.8-1.3-3.1-1.3c-2.2,0-3.8,1.8-3.8,4s1.6,4.1,3.8,4.1c1.3,0,2.2-0.5,3.2-1.4l0.7,0.7
		C190.3,299.7,189.2,300.4,187.4,300.4z"/>
</g>
<g>
	<g>
		<polygon class="st2" points="298.3,281.8 292.9,281.8 292.9,278.2 294.7,278.2 294.7,276.4 298.3,276.4 		"/>
	</g>
	<g>
		<path class="st2" d="M285.7,281.8h-7.2v-3.6h7.2V281.8z M271.4,281.8h-7.2v-3.6h7.2V281.8z M257,281.8h-7.2v-3.6h7.2V281.8z
			 M242.6,281.8h-7.2v-3.6h7.2V281.8z M228.3,281.8h-7.2v-3.6h7.2V281.8z M213.9,281.8h-7.2v-3.6h7.2V281.8z M199.5,281.8h-7.2v-3.6
			h7.2V281.8z M185.1,281.8H178v-3.6h7.2V281.8z M170.8,281.8h-7.2v-3.6h7.2V281.8z M156.4,281.8h-7.2v-3.6h7.2V281.8z M142,281.8
			h-7.2v-3.6h7.2V281.8z M127.7,281.8h-7.2v-3.6h7.2V281.8z M113.3,281.8h-7.2v-3.6h7.2V281.8z M98.9,281.8h-7.2v-3.6h7.2V281.8z
			 M84.6,281.8h-7.2v-3.6h7.2V281.8z M70.2,281.8H63v-3.6h7.2V281.8z M55.8,281.8h-7.2v-3.6h7.2V281.8z M41.5,281.8h-7.2v-3.6h7.2
			V281.8z"/>
	</g>
	<g>
		<polygon class="st2" points="27.1,281.8 21.7,281.8 21.7,276.4 25.3,276.4 25.3,278.2 27.1,278.2 		"/>
	</g>
	<g>
		<path class="st2" d="M25.3,269.1h-3.6v-7.3h3.6V269.1z M25.3,254.6h-3.6v-7.3h3.6V254.6z M25.3,240h-3.6v-7.3h3.6V240z
			 M25.3,225.5h-3.6v-7.3h3.6V225.5z M25.3,211h-3.6v-7.3h3.6V211z M25.3,196.4h-3.6v-7.3h3.6V196.4z M25.3,181.9h-3.6v-7.3h3.6
			V181.9z M25.3,167.3h-3.6V160h3.6V167.3z M25.3,152.8h-3.6v-7.3h3.6V152.8z M25.3,138.2h-3.6V131h3.6V138.2z M25.3,123.7h-3.6
			v-7.3h3.6V123.7z M25.3,109.1h-3.6v-7.3h3.6V109.1z"/>
	</g>
	<g>
		<polygon class="st2" points="25.3,94.6 21.7,94.6 21.7,89.2 27.1,89.2 27.1,92.8 25.3,92.8 		"/>
	</g>
	<g>
		<path class="st2" d="M285.7,92.8h-7.2v-3.6h7.2V92.8z M271.4,92.8h-7.2v-3.6h7.2V92.8z M257,92.8h-7.2v-3.6h7.2V92.8z M242.6,92.8
			h-7.2v-3.6h7.2V92.8z M228.3,92.8h-7.2v-3.6h7.2V92.8z M213.9,92.8h-7.2v-3.6h7.2V92.8z M199.5,92.8h-7.2v-3.6h7.2V92.8z
			 M185.1,92.8H178v-3.6h7.2V92.8z M170.8,92.8h-7.2v-3.6h7.2V92.8z M156.4,92.8h-7.2v-3.6h7.2V92.8z M142,92.8h-7.2v-3.6h7.2V92.8z
			 M127.7,92.8h-7.2v-3.6h7.2V92.8z M113.3,92.8h-7.2v-3.6h7.2V92.8z M98.9,92.8h-7.2v-3.6h7.2V92.8z M84.6,92.8h-7.2v-3.6h7.2V92.8
			z M70.2,92.8H63v-3.6h7.2V92.8z M55.8,92.8h-7.2v-3.6h7.2V92.8z M41.5,92.8h-7.2v-3.6h7.2V92.8z"/>
	</g>
	<g>
		<polygon class="st2" points="298.3,94.6 294.7,94.6 294.7,92.8 292.9,92.8 292.9,89.2 298.3,89.2 		"/>
	</g>
	<g>
		<path class="st2" d="M298.3,269.1h-3.6v-7.3h3.6V269.1z M298.3,254.6h-3.6v-7.3h3.6V254.6z M298.3,240h-3.6v-7.3h3.6V240z
			 M298.3,225.5h-3.6v-7.3h3.6V225.5z M298.3,211h-3.6v-7.3h3.6V211z M298.3,196.4h-3.6v-7.3h3.6V196.4z M298.3,181.9h-3.6v-7.3h3.6
			V181.9z M298.3,167.3h-3.6V160h3.6V167.3z M298.3,152.8h-3.6v-7.3h3.6V152.8z M298.3,138.2h-3.6V131h3.6V138.2z M298.3,123.7h-3.6
			v-7.3h3.6V123.7z M298.3,109.1h-3.6v-7.3h3.6V109.1z"/>
	</g>
</g>
</svg>
