<?xml version="1.0" encoding="utf-8"?>
<!-- Generator: Adobe Illustrator 19.1.0, SVG Export Plug-In . SVG Version: 6.00 Build 0)  -->
<svg version="1.1" id="Layer_1" xmlns="http://www.w3.org/2000/svg" xmlns:xlink="http://www.w3.org/1999/xlink" x="0px" y="0px"
	 viewBox="0 0 320 320" style="enable-background:new 0 0 320 320;" xml:space="preserve">
<style type="text/css">
	.st0{fill:#757576;}
	.st1{fill-rule:evenodd;clip-rule:evenodd;fill:#9D9D9D;}
	.st2{fill:#9D9D9D;}
	.st3{fill:#FAA629;}
	.st4{fill-rule:evenodd;clip-rule:evenodd;fill:#FAA629;}
</style>
<g>
	<path class="st0" d="M130.6,300.2h-1.1v-3.9l-4.1-5.9h1.3l3.3,4.9l3.3-4.9h1.3l-4.1,5.9V300.2z"/>
	<path class="st0" d="M138,300.4c-2.2,0-3.8-1.7-3.8-3.8c0-2.1,1.6-3.8,3.8-3.8c2.2,0,3.8,1.7,3.8,3.8
		C141.8,298.7,140.2,300.4,138,300.4z M138,293.8c-1.6,0-2.6,1.2-2.6,2.8c0,1.6,1.1,2.8,2.7,2.8c1.6,0,2.7-1.2,2.7-2.8
		C140.7,295,139.5,293.8,138,293.8z"/>
	<path class="st0" d="M148.9,293h1.1v7.2h-1.1V299c-0.5,0.8-1.2,1.4-2.5,1.4c-1.8,0-2.8-1.2-2.8-2.9V293h1.1v4.2
		c0,1.3,0.7,2.2,2,2.2c1.2,0,2.2-0.9,2.2-2.3V293z"/>
	<path class="st0" d="M153.4,300.2h-1.1V293h1.1v1.9c0.5-1.2,1.6-2.1,3-2v1.2h-0.1c-1.6,0-2.9,1.1-2.9,3.3V300.2z"/>
	<path class="st0" d="M171.5,300.2h-1.2l-1.1-2.6h-5.3l-1.2,2.6h-1.1l4.5-9.9h1L171.5,300.2z M166.5,291.6l-2.2,5h4.5L166.5,291.6z"
		/>
	<path class="st0" d="M178.1,290.4h0.9l2.7,8.2l2.8-8.2h1.2l-3.5,9.9h-0.9l-2.7-8l-2.7,8H175l-3.5-9.9h1.2l2.8,8.2L178.1,290.4z"/>
	<path class="st0" d="M191,294.8c2.2,0.5,3.2,1.3,3.2,2.8c0,1.7-1.4,2.8-3.3,2.8c-1.6,0-2.8-0.5-4-1.6l0.7-0.8c1,0.9,2,1.4,3.4,1.4
		c1.3,0,2.2-0.7,2.2-1.7c0-0.9-0.5-1.4-2.5-1.9c-2.3-0.5-3.3-1.2-3.3-2.8c0-1.6,1.4-2.7,3.2-2.7c1.4,0,2.5,0.4,3.4,1.2l-0.6,0.9
		c-0.9-0.7-1.8-1.1-2.8-1.1c-1.3,0-2.1,0.7-2.1,1.6C188.3,293.8,188.8,294.3,191,294.8z"/>
	<path class="st0" d="M120.4,316.2c1,0,1.7-0.4,2.3-1l0.7,0.6c-0.7,0.8-1.6,1.4-3,1.4c-2,0-3.6-1.5-3.6-3.8c0-2.1,1.5-3.8,3.5-3.8
		c2.1,0,3.4,1.7,3.4,3.8c0,0.1,0,0.2,0,0.3h-5.7C118,315.4,119.1,316.2,120.4,316.2z M122.5,313c-0.1-1.3-0.9-2.5-2.3-2.5
		c-1.3,0-2.2,1.1-2.4,2.5H122.5z"/>
	<path class="st0" d="M126.6,317h-1.1v-7.2h1.1v1.3c0.5-0.8,1.2-1.4,2.5-1.4c1.8,0,2.8,1.2,2.8,2.9v4.5h-1.1v-4.2
		c0-1.3-0.7-2.2-2-2.2c-1.2,0-2.2,0.9-2.2,2.3V317z"/>
	<path class="st0" d="M139.5,309.8h1.2l-3.2,7.3h-1l-3.1-7.3h1.2l2.4,6L139.5,309.8z"/>
	<path class="st0" d="M142.3,308.2V307h1.2v1.2H142.3z M142.4,317v-7.2h1.1v7.2H142.4z"/>
	<path class="st0" d="M147.1,317H146v-7.2h1.1v1.9c0.5-1.2,1.6-2.1,3-2v1.2h-0.1c-1.6,0-2.9,1.1-2.9,3.3V317z"/>
	<path class="st0" d="M155,317.2c-2.2,0-3.8-1.7-3.8-3.8c0-2.1,1.6-3.8,3.8-3.8c2.2,0,3.8,1.7,3.8,3.8S157.2,317.2,155,317.2z
		 M155,310.6c-1.6,0-2.6,1.2-2.6,2.8c0,1.6,1.1,2.8,2.7,2.8c1.6,0,2.7-1.2,2.7-2.8C157.7,311.8,156.5,310.6,155,310.6z"/>
	<path class="st0" d="M161.8,317h-1.1v-7.2h1.1v1.3c0.5-0.8,1.2-1.4,2.5-1.4c1.8,0,2.8,1.2,2.8,2.9v4.5H166v-4.2
		c0-1.3-0.7-2.2-2-2.2c-1.2,0-2.2,0.9-2.2,2.3V317z"/>
	<path class="st0" d="M177.6,309.6c1.7,0,2.7,1.1,2.7,2.9v4.5h-1.1v-4.2c0-1.4-0.7-2.2-1.9-2.2c-1.1,0-2,0.8-2,2.2v4.2h-1.1v-4.3
		c0-1.4-0.7-2.2-1.9-2.2c-1.1,0-2,1-2,2.3v4.1h-1.1v-7.2h1.1v1.2c0.5-0.7,1.1-1.4,2.3-1.4c1.2,0,1.9,0.6,2.3,1.4
		C175.6,310.3,176.4,309.6,177.6,309.6z"/>
	<path class="st0" d="M185.8,316.2c1,0,1.7-0.4,2.3-1l0.7,0.6c-0.7,0.8-1.6,1.4-3,1.4c-2,0-3.6-1.5-3.6-3.8c0-2.1,1.5-3.8,3.5-3.8
		c2.1,0,3.4,1.7,3.4,3.8c0,0.1,0,0.2,0,0.3h-5.7C183.5,315.4,184.6,316.2,185.8,316.2z M188,313c-0.1-1.3-0.9-2.5-2.3-2.5
		c-1.3,0-2.2,1.1-2.4,2.5H188z"/>
	<path class="st0" d="M192,317h-1.1v-7.2h1.1v1.3c0.5-0.8,1.2-1.4,2.5-1.4c1.8,0,2.8,1.2,2.8,2.9v4.5h-1.1v-4.2c0-1.3-0.7-2.2-2-2.2
		c-1.2,0-2.2,0.9-2.2,2.3V317z"/>
	<path class="st0" d="M201,315c0,0.9,0.5,1.2,1.2,1.2c0.4,0,0.7-0.1,1.1-0.3v0.9c-0.4,0.2-0.8,0.3-1.3,0.3c-1.2,0-2-0.6-2-2v-4.4h-1
		v-1h1v-2.2h1.1v2.2h2.3v1H201V315z"/>
</g>
<circle class="st1" cx="160" cy="184" r="18"/>
<circle class="st1" cx="239.4" cy="141.5" r="18"/>
<circle class="st1" cx="80.6" cy="141.5" r="18"/>
<g>
	<path class="st0" d="M157,281.5c-2,0-4-0.1-6-0.3l0.2-3c2,0.1,3.9,0.2,5.9,0.3L157,281.5z M163.1,281.5l-0.1-3c2,0,3.9-0.1,5.9-0.3
		l0.2,3C167.1,281.3,165.1,281.4,163.1,281.5z M145,280.7c-2-0.2-4-0.5-6-0.8l0.5-3c1.9,0.3,3.9,0.6,5.9,0.8L145,280.7z
		 M175.1,280.7l-0.3-3c2-0.2,3.9-0.5,5.9-0.8l0.5,3C179.2,280.2,177.1,280.4,175.1,280.7z M133.1,278.8c-2-0.4-3.9-0.8-5.9-1.3
		l0.7-2.9c1.9,0.5,3.8,0.9,5.8,1.3L133.1,278.8z M187.1,278.8l-0.6-2.9c1.9-0.4,3.9-0.8,5.8-1.3l0.7,2.9
		C191,278,189,278.4,187.1,278.8z M121.3,276c-1.9-0.6-3.9-1.2-5.8-1.8l1-2.8c1.9,0.6,3.7,1.2,5.6,1.8L121.3,276z M198.8,275.9
		l-0.8-2.9c1.9-0.6,3.8-1.2,5.6-1.8l1,2.8C202.6,274.7,200.7,275.3,198.8,275.9z M109.9,272c-1.9-0.7-3.8-1.5-5.6-2.3l1.2-2.7
		c1.8,0.8,3.6,1.6,5.5,2.3L109.9,272z M210.2,272l-1.1-2.8c1.8-0.7,3.6-1.5,5.4-2.3l1.2,2.7C213.9,270.5,212.1,271.2,210.2,272z
		 M98.9,267.1c-1.8-0.9-3.6-1.9-5.3-2.8l1.5-2.6c1.7,1,3.5,1.9,5.2,2.8L98.9,267.1z M221.2,267.1l-1.3-2.7c1.7-0.9,3.5-1.8,5.2-2.8
		l1.5,2.6C224.8,265.2,223,266.2,221.2,267.1z M88.3,261.2c-1.7-1.1-3.4-2.2-5.1-3.3l1.7-2.5c1.6,1.1,3.3,2.2,5,3.2L88.3,261.2z
		 M231.7,261.2l-1.6-2.6c1.7-1,3.3-2.1,4.9-3.2l1.7,2.5C235.1,259,233.4,260.1,231.7,261.2z M78.3,254.4c-1.6-1.2-3.2-2.5-4.8-3.7
		l1.9-2.3c1.5,1.2,3.1,2.5,4.7,3.6L78.3,254.4z M241.7,254.4l-1.8-2.4c1.6-1.2,3.1-2.4,4.6-3.6l1.9,2.3
		C244.9,251.9,243.3,253.2,241.7,254.4z M251,246.7l-2-2.2c1.5-1.3,2.9-2.7,4.3-4l2.1,2.1C254,244,252.5,245.4,251,246.7z M69,246.7
		c-1.5-1.3-3-2.7-4.4-4.1l2.1-2.1c1.4,1.4,2.9,2.7,4.3,4L69,246.7z M259.6,238.3l-2.2-2.1c1.3-1.4,2.7-2.9,3.9-4.4l2.3,2
		C262.4,235.3,261,236.8,259.6,238.3z M60.4,238.3c-1.4-1.5-2.7-3-4-4.5l2.3-2c1.3,1.5,2.6,3,3.9,4.4L60.4,238.3z M52.5,229.1
		c-1.2-1.6-2.4-3.2-3.6-4.8l2.4-1.7c1.1,1.6,2.3,3.2,3.5,4.7L52.5,229.1z M267.5,229.1l-2.4-1.9c1.2-1.5,2.4-3.1,3.5-4.7l2.4,1.7
		C270,225.9,268.7,227.5,267.5,229.1z M45.5,219.3c-1.1-1.7-2.2-3.4-3.2-5.1l2.6-1.5c1,1.7,2,3.4,3.1,5L45.5,219.3z M274.5,219.3
		l-2.5-1.6c1.1-1.6,2.1-3.3,3.1-5l2.6,1.5C276.7,215.9,275.6,217.6,274.5,219.3z M39.4,208.9c-0.9-1.8-1.8-3.6-2.7-5.4l2.7-1.3
		c0.8,1.8,1.7,3.5,2.6,5.3L39.4,208.9z M280.7,208.9l-2.7-1.4c0.9-1.7,1.8-3.5,2.7-5.3l2.7,1.3C282.5,205.3,281.6,207.1,280.7,208.9
		z M34.2,198c-0.8-1.8-1.5-3.7-2.2-5.6l2.8-1c0.7,1.8,1.4,3.7,2.2,5.5L34.2,198z M285.8,198l-2.8-1.2c0.8-1.8,1.5-3.7,2.2-5.5l2.8,1
		C287.4,194.2,286.6,196.1,285.8,198z M30,186.7c-0.6-1.9-1.2-3.9-1.7-5.8l2.9-0.8c0.5,1.9,1.1,3.8,1.7,5.7L30,186.7z M290,186.6
		l-2.9-0.9c0.6-1.9,1.2-3.8,1.7-5.7l2.9,0.8C291.2,182.8,290.7,184.7,290,186.6z M26.8,175.1c-0.4-2-0.8-3.9-1.2-5.9l3-0.5
		c0.3,1.9,0.7,3.9,1.2,5.8L26.8,175.1z M293.2,174.9l-2.9-0.7c0.4-1.9,0.8-3.8,1.2-5.8l3,0.5C294,171,293.6,173,293.2,174.9z
		 M24.7,163.2c-0.3-2-0.5-4-0.7-6l3-0.3c0.2,2,0.4,3.9,0.7,5.9L24.7,163.2z M295.3,163.1l-3-0.4c0.3-1.9,0.5-3.9,0.6-5.9l3,0.3
		C295.8,159,295.6,161.1,295.3,163.1z M23.6,151.2c-0.1-2-0.1-4-0.1-6l3,0c0,2,0,3.9,0.1,5.9L23.6,151.2z M296.4,151l-3-0.1
		c0.1-2,0.1-3.9,0.1-5.9v-0.3h3v0.3C296.5,147,296.5,149,296.4,151z M26.6,139.2l-3-0.1c0.1-2,0.2-4,0.4-6l3,0.3
		C26.8,135.3,26.7,137.3,26.6,139.2z M293.4,138.8c-0.1-2-0.2-3.9-0.4-5.9l3-0.3c0.2,2,0.3,4,0.4,6L293.4,138.8z M27.6,127.5l-3-0.4
		c0.3-2,0.6-4,0.9-6l3,0.5C28.2,123.6,27.9,125.5,27.6,127.5z M292.3,127c-0.3-1.9-0.6-3.9-0.9-5.8l3-0.5c0.4,2,0.7,4,0.9,6
		L292.3,127z M29.7,115.9l-2.9-0.7c0.4-2,0.9-3.9,1.4-5.9l2.9,0.8C30.6,112,30.1,113.9,29.7,115.9z M290.2,115.4
		c-0.4-1.9-0.9-3.8-1.4-5.7l2.9-0.8c0.5,1.9,1,3.9,1.5,5.9L290.2,115.4z M32.8,104.5l-2.9-0.9c0.6-1.9,1.3-3.8,2-5.7l2.8,1
		C34,100.7,33.4,102.6,32.8,104.5z M287.1,104c-0.6-1.9-1.3-3.7-1.9-5.6l2.8-1c0.7,1.9,1.4,3.8,2,5.7L287.1,104z M36.9,93.3
		l-2.8-1.2c0.8-1.9,1.6-3.7,2.5-5.5l2.7,1.3C38.4,89.7,37.6,91.5,36.9,93.3z M283,93c-0.8-1.8-1.6-3.6-2.4-5.4l2.7-1.3
		c0.9,1.8,1.7,3.7,2.5,5.5L283,93z M41.9,82.7l-2.7-1.4c0.9-1.8,1.9-3.5,2.9-5.3l2.6,1.5C43.8,79.2,42.8,80.9,41.9,82.7z
		 M277.9,82.4c-0.9-1.7-1.9-3.5-2.9-5.1l2.6-1.5c1,1.7,2,3.5,3,5.3L277.9,82.4z M47.9,72.5l-2.5-1.6c1.1-1.7,2.2-3.4,3.4-5l2.4,1.7
		C50.1,69.2,49,70.8,47.9,72.5z M271.9,72.2c-1.1-1.6-2.2-3.3-3.3-4.9l2.4-1.7c1.2,1.6,2.3,3.3,3.4,5L271.9,72.2z M54.8,62.8
		L52.4,61c1.2-1.6,2.5-3.2,3.8-4.7l2.3,2C57.2,59.8,56,61.3,54.8,62.8z M265,62.6c-1.2-1.5-2.5-3.1-3.7-4.6l2.3-2
		c1.3,1.5,2.6,3.1,3.8,4.7L265,62.6z M62.4,53.9l-2.2-2c1.4-1.5,2.8-2.9,4.2-4.3l2.1,2.1C65.2,51,63.8,52.4,62.4,53.9z M257.4,53.7
		c-1.3-1.4-2.7-2.8-4.1-4.2l2.1-2.1c1.4,1.4,2.9,2.9,4.2,4.3L257.4,53.7z M70.9,45.6l-2-2.2c1.5-1.3,3-2.7,4.6-3.9l1.9,2.3
		C73.8,43,72.3,44.3,70.9,45.6z M248.9,45.4c-1.5-1.3-3-2.6-4.5-3.8l1.9-2.3c1.6,1.3,3.1,2.6,4.6,3.9L248.9,45.4z M80,38.1l-1.8-2.4
		c1.6-1.2,3.3-2.4,4.9-3.5l1.7,2.5C83.2,35.8,81.6,36.9,80,38.1z M239.8,37.9c-1.6-1.2-3.2-2.3-4.8-3.4l1.7-2.5
		c1.7,1.1,3.3,2.3,4.9,3.5L239.8,37.9z M89.7,31.5l-1.6-2.5c1.7-1.1,3.4-2.1,5.2-3.1l1.5,2.6C93.1,29.4,91.4,30.4,89.7,31.5z
		 M230,31.3c-1.7-1-3.4-2-5.1-3l1.5-2.6c1.8,1,3.5,2,5.2,3.1L230,31.3z M100,25.7L98.7,23c1.8-0.9,3.6-1.8,5.4-2.6l1.2,2.7
		C103.6,24,101.8,24.8,100,25.7z M219.6,25.5c-1.8-0.9-3.6-1.7-5.3-2.5l1.2-2.7c1.8,0.8,3.7,1.7,5.5,2.6L219.6,25.5z M110.8,20.9
		l-1.1-2.8c1.9-0.7,3.8-1.4,5.7-2.1l1,2.8C114.5,19.5,112.6,20.1,110.8,20.9z M208.8,20.7c-1.8-0.7-3.7-1.4-5.6-2l1-2.8
		c1.9,0.7,3.8,1.4,5.7,2.1L208.8,20.7z M121.9,17l-0.9-2.9c1.9-0.6,3.9-1.1,5.8-1.6l0.7,2.9C125.7,15.9,123.8,16.4,121.9,17z
		 M197.7,16.9c-1.9-0.6-3.8-1.1-5.7-1.5l0.7-2.9c1.9,0.5,3.9,1,5.8,1.6L197.7,16.9z M133.4,14.2l-0.6-2.9c2-0.4,4-0.8,5.9-1.1l0.5,3
		C137.3,13.4,135.3,13.8,133.4,14.2z M186.2,14.1c-1.9-0.4-3.9-0.7-5.8-1l0.5-3c2,0.3,4,0.7,5.9,1L186.2,14.1z M145.1,12.3l-0.3-3
		c2-0.2,4-0.4,6-0.5l0.2,3C149,11.9,147,12.1,145.1,12.3z M174.5,12.3c-2-0.2-3.9-0.4-5.9-0.5l0.2-3c2,0.1,4,0.3,6,0.5L174.5,12.3z
		 M156.8,11.5l-0.1-3c2,0,4-0.1,6,0l-0.1,3C160.8,11.5,158.8,11.5,156.8,11.5z"/>
</g>
<polygon class="st2" points="170.1,130.8 161,140.6 161,121 158,121 158,139.5 149.9,130.8 147.7,132.8 160,146 172.3,132.8 "/>
<polygon class="st2" points="217.9,99.3 217.2,111.8 205.1,97.4 202.8,99.3 214.9,113.8 202.4,112.2 202.1,115.2 219.9,117.4 
	220.9,99.4 "/>
<polygon class="st2" points="117.6,112.2 105.1,113.8 117.2,99.3 114.9,97.4 102.8,111.8 102.1,99.3 99.1,99.4 100.1,117.4 
	117.9,115.2 "/>
<g>
	<g>
		<path class="st3" d="M139.1,83.2h-4.7v-9.8h4.6c2,0,3.2,1,3.2,2.5v0c0,1.1-0.6,1.7-1.3,2.1c1.1,0.4,1.8,1.1,1.8,2.4v0
			C142.8,82.3,141.3,83.2,139.1,83.2z M140.1,76.3c0-0.6-0.5-1-1.4-1h-2.1v2.1h2C139.5,77.4,140.1,77.1,140.1,76.3L140.1,76.3z
			 M140.6,80.2c0-0.7-0.5-1.1-1.6-1.1h-2.5v2.2h2.6C140.1,81.3,140.6,81,140.6,80.2L140.6,80.2z"/>
		<path class="st3" d="M148.7,83.2v-0.8c-0.5,0.6-1.2,1-2.3,1c-1.4,0-2.6-0.8-2.6-2.3v0c0-1.6,1.2-2.4,3-2.4c0.8,0,1.3,0.1,1.8,0.3
			v-0.1c0-0.9-0.5-1.4-1.6-1.4c-0.8,0-1.4,0.2-2.1,0.4l-0.5-1.6c0.8-0.4,1.6-0.6,2.9-0.6c2.3,0,3.3,1.2,3.3,3.2v4.4H148.7z
			 M148.8,80.2c-0.4-0.2-0.8-0.3-1.4-0.3c-0.9,0-1.5,0.4-1.5,1v0c0,0.6,0.5,0.9,1.2,0.9c1,0,1.7-0.5,1.7-1.3V80.2z"/>
		<path class="st3" d="M155.2,83.4c-1.1,0-2.2-0.4-3.2-1.1l0.9-1.4c0.8,0.6,1.7,0.9,2.4,0.9c0.6,0,0.9-0.2,0.9-0.6v0
			c0-0.5-0.7-0.6-1.6-0.9c-1.1-0.3-2.2-0.8-2.2-2.3v0c0-1.5,1.2-2.4,2.7-2.4c1,0,2,0.3,2.8,0.9l-0.8,1.5c-0.7-0.4-1.5-0.7-2-0.7
			c-0.5,0-0.8,0.2-0.8,0.5v0c0,0.4,0.7,0.6,1.5,0.9c1,0.4,2.3,0.9,2.3,2.2v0C158.1,82.6,156.9,83.4,155.2,83.4z"/>
		<path class="st3" d="M162.2,83.3c-1.3,0-2.2-0.5-2.2-2.3v-3.6h-0.9v-1.8h0.9v-1.9h2.1v1.9h1.8v1.8h-1.8v3.2c0,0.5,0.2,0.7,0.7,0.7
			c0.4,0,0.7-0.1,1.1-0.3v1.7C163.4,83.2,162.9,83.3,162.2,83.3z"/>
		<path class="st3" d="M165.5,74.9V73h2.2v1.9H165.5z M165.5,83.2v-7.5h2.1v7.5H165.5z"/>
		<path class="st3" d="M173.4,83.4c-2.3,0-4-1.7-4-3.9v0c0-2.2,1.7-3.9,4.1-3.9c2.3,0,4,1.7,4,3.9v0
			C177.4,81.6,175.7,83.4,173.4,83.4z M175.3,79.5c0-1.1-0.8-2.1-2-2.1c-1.2,0-1.9,0.9-1.9,2v0c0,1.1,0.8,2.1,2,2.1
			C174.6,81.6,175.3,80.6,175.3,79.5L175.3,79.5z"/>
		<path class="st3" d="M183.7,83.2V79c0-1-0.5-1.5-1.3-1.5s-1.3,0.5-1.3,1.5v4.2H179v-7.5h2.1v1.1c0.5-0.6,1.1-1.2,2.2-1.2
			c1.6,0,2.5,1.1,2.5,2.8v4.9H183.7z"/>
		<path class="st3" d="M131.3,100v-9.8h2.2v9.8H131.3z"/>
		<path class="st3" d="M140.5,100v-4.2c0-1-0.5-1.5-1.3-1.5s-1.3,0.5-1.3,1.5v4.2h-2.1v-7.5h2.1v1.1c0.5-0.6,1.1-1.2,2.2-1.2
			c1.6,0,2.5,1.1,2.5,2.8v4.9H140.5z"/>
		<path class="st3" d="M147.1,100.2c-1.1,0-2.2-0.4-3.2-1.1l0.9-1.4c0.8,0.6,1.7,0.9,2.4,0.9c0.6,0,0.9-0.2,0.9-0.6v0
			c0-0.5-0.7-0.6-1.6-0.9c-1.1-0.3-2.2-0.8-2.2-2.3v0c0-1.5,1.2-2.4,2.7-2.4c1,0,2,0.3,2.8,0.9l-0.8,1.5c-0.7-0.4-1.5-0.7-2-0.7
			c-0.5,0-0.8,0.2-0.8,0.5v0c0,0.4,0.7,0.6,1.5,0.9c1,0.4,2.3,0.9,2.3,2.2v0C150,99.4,148.7,100.2,147.1,100.2z"/>
		<path class="st3" d="M154,100.1c-1.3,0-2.2-0.5-2.2-2.3v-3.6h-0.9v-1.8h0.9v-1.9h2.1v1.9h1.8v1.8H154v3.2c0,0.5,0.2,0.7,0.7,0.7
			c0.4,0,0.7-0.1,1.1-0.3v1.7C155.2,100,154.7,100.1,154,100.1z"/>
		<path class="st3" d="M161.7,100v-0.8c-0.5,0.6-1.2,1-2.3,1c-1.4,0-2.6-0.8-2.6-2.3v0c0-1.6,1.2-2.4,3-2.4c0.8,0,1.3,0.1,1.8,0.3
			v-0.1c0-0.9-0.5-1.4-1.6-1.4c-0.8,0-1.4,0.2-2.1,0.4l-0.5-1.6c0.8-0.4,1.6-0.6,2.9-0.6c2.3,0,3.3,1.2,3.3,3.2v4.4H161.7z
			 M161.7,97c-0.4-0.2-0.8-0.3-1.4-0.3c-0.9,0-1.5,0.4-1.5,1v0c0,0.6,0.5,0.9,1.2,0.9c1,0,1.7-0.5,1.7-1.3V97z"/>
		<path class="st3" d="M170.3,100v-4.2c0-1-0.5-1.5-1.3-1.5s-1.3,0.5-1.3,1.5v4.2h-2.1v-7.5h2.1v1.1c0.5-0.6,1.1-1.2,2.2-1.2
			c1.6,0,2.5,1.1,2.5,2.8v4.9H170.3z"/>
		<path class="st3" d="M177.8,100.2c-2.3,0-3.9-1.7-3.9-3.9v0c0-2.1,1.6-3.9,3.9-3.9c1.4,0,2.3,0.5,3,1.3l-1.3,1.4
			c-0.5-0.5-1-0.8-1.7-0.8c-1.1,0-1.8,0.9-1.8,2v0c0,1.1,0.7,2.1,1.9,2.1c0.7,0,1.2-0.3,1.7-0.8l1.2,1.3
			C180.2,99.6,179.3,100.2,177.8,100.2z"/>
		<path class="st3" d="M189.3,97H184c0.2,1,0.9,1.5,1.8,1.5c0.7,0,1.2-0.2,1.8-0.8l1.2,1.1c-0.7,0.9-1.7,1.4-3.1,1.4
			c-2.3,0-3.9-1.6-3.9-3.9v0c0-2.1,1.5-3.9,3.7-3.9c2.5,0,3.7,1.9,3.7,4.1v0C189.3,96.7,189.3,96.8,189.3,97z M185.6,94.1
			c-0.9,0-1.5,0.6-1.6,1.6h3.2C187.1,94.7,186.5,94.1,185.6,94.1z"/>
	</g>
</g>
<g>
	<g>
		<path class="st2" d="M217.7,180.1c-1.5,0-3-0.5-4.2-1.6l1.3-1.5c0.9,0.7,1.8,1.2,2.9,1.2c0.9,0,1.4-0.4,1.4-0.9v0
			c0-0.5-0.3-0.8-2-1.2c-2-0.5-3.2-1.1-3.2-3v0c0-1.8,1.4-3,3.4-3c1.4,0,2.6,0.4,3.6,1.2l-1.1,1.6c-0.9-0.6-1.7-1-2.5-1
			c-0.8,0-1.3,0.4-1.3,0.9v0c0,0.6,0.4,0.9,2.1,1.3c2,0.5,3.1,1.2,3.1,2.9v0C221.3,179,219.8,180.1,217.7,180.1z"/>
		<path class="st2" d="M230,176.9h-5.2c0.2,1,0.9,1.5,1.8,1.5c0.7,0,1.2-0.2,1.8-0.8l1.2,1.1c-0.7,0.9-1.7,1.4-3.1,1.4
			c-2.3,0-3.9-1.6-3.9-3.9v0c0-2.1,1.5-3.9,3.7-3.9c2.5,0,3.7,1.9,3.7,4.1v0C230,176.6,230,176.7,230,176.9z M226.3,174
			c-0.9,0-1.5,0.6-1.6,1.6h3.2C227.8,174.6,227.2,174,226.3,174z"/>
		<path class="st2" d="M236,174.5c-1.4,0-2.3,0.9-2.3,2.6v2.8h-2.1v-7.5h2.1v1.5c0.4-1,1.1-1.7,2.4-1.7v2.2H236z"/>
		<path class="st2" d="M241.6,180h-1.9l-3-7.6h2.3l1.7,5l1.7-5h2.2L241.6,180z"/>
		<path class="st2" d="M245.9,171.6v-1.9h2.2v1.9H245.9z M245.9,179.9v-7.5h2.1v7.5H245.9z"/>
		<path class="st2" d="M253.6,180.1c-2.3,0-3.9-1.7-3.9-3.9v0c0-2.1,1.6-3.9,3.9-3.9c1.4,0,2.3,0.5,3,1.3l-1.3,1.4
			c-0.5-0.5-1-0.8-1.7-0.8c-1.1,0-1.8,0.9-1.8,2v0c0,1.1,0.7,2.1,1.9,2.1c0.7,0,1.2-0.3,1.7-0.8l1.2,1.3
			C255.9,179.5,255.1,180.1,253.6,180.1z"/>
		<path class="st2" d="M265,176.9h-5.2c0.2,1,0.9,1.5,1.8,1.5c0.7,0,1.2-0.2,1.8-0.8l1.2,1.1c-0.7,0.9-1.7,1.4-3.1,1.4
			c-2.3,0-3.9-1.6-3.9-3.9v0c0-2.1,1.5-3.9,3.7-3.9c2.5,0,3.7,1.9,3.7,4.1v0C265,176.6,265,176.7,265,176.9z M261.4,174
			c-0.9,0-1.5,0.6-1.6,1.6h3.2C262.8,174.6,262.3,174,261.4,174z"/>
		<path class="st2" d="M205,192.7c0,2,0.8,3.3,2.7,4.6l-0.9,1.4c-2.6-1.4-3.9-3.3-3.9-6s1.3-4.6,3.9-6l0.9,1.4
			C205.8,189.4,205,190.7,205,192.7z"/>
		<path class="st2" d="M209.5,196.7v-9.8h7.4v1.9h-5.3v2h4.6v1.9h-4.6v2.1h5.3v1.9H209.5z"/>
		<path class="st2" d="M218.8,196.7v-9.8h2.2v7.8h4.9v2H218.8z"/>
		<path class="st2" d="M232.2,196.7h-4.7v-9.8h4.6c2,0,3.2,1,3.2,2.5v0c0,1.1-0.6,1.7-1.3,2.1c1.1,0.4,1.8,1.1,1.8,2.4v0
			C235.8,195.8,234.4,196.7,232.2,196.7z M233.1,189.8c0-0.6-0.5-1-1.4-1h-2.1v2.1h2C232.5,190.9,233.1,190.6,233.1,189.8
			L233.1,189.8z M233.7,193.7c0-0.7-0.5-1.1-1.6-1.1h-2.5v2.2h2.6C233.1,194.8,233.7,194.5,233.7,193.7L233.7,193.7z"/>
		<path class="st2" d="M238.2,196.7h-0.9v-2.2h2.3v1.9c0,1.8-0.9,2.6-2.6,2.6l-0.2-0.9C237.8,198,238.2,197.5,238.2,196.7z"/>
		<path class="st2" d="M247.6,196.7l-2.1-3.1h-1.7v3.1h-2.2v-9.8h4.5c2.3,0,3.7,1.2,3.7,3.2v0c0,1.6-0.9,2.6-2.1,3l2.4,3.5H247.6z
			 M247.6,190.3c0-0.9-0.6-1.4-1.7-1.4h-2.1v2.8h2.2C247,191.7,247.6,191.1,247.6,190.3L247.6,190.3z"/>
		<path class="st2" d="M255.6,196.7h-3.8v-9.8h3.8c3.1,0,5.2,2.1,5.2,4.9v0C260.8,194.6,258.6,196.7,255.6,196.7z M258.5,191.8
			c0-1.7-1.2-3-3-3h-1.7v5.9h1.7C257.3,194.8,258.5,193.6,258.5,191.8L258.5,191.8z"/>
		<path class="st2" d="M266.2,196.9c-1.5,0-3-0.5-4.2-1.6l1.3-1.5c0.9,0.7,1.8,1.2,2.9,1.2c0.9,0,1.4-0.3,1.4-0.9v0
			c0-0.5-0.3-0.8-2-1.2c-2-0.5-3.2-1-3.2-3v0c0-1.8,1.4-3,3.4-3c1.4,0,2.6,0.4,3.6,1.2l-1.1,1.6c-0.9-0.6-1.7-1-2.5-1
			c-0.8,0-1.3,0.4-1.3,0.9v0c0,0.6,0.4,0.9,2.1,1.3c2,0.5,3.1,1.2,3.1,2.9v0C269.8,195.8,268.3,196.9,266.2,196.9z"/>
		<path class="st2" d="M272,198.7l-0.9-1.4c1.9-1.3,2.7-2.6,2.7-4.6c0-2-0.8-3.3-2.7-4.6l0.9-1.4c2.6,1.4,3.9,3.3,3.9,6
			S274.6,197.3,272,198.7z"/>
	</g>
</g>
<g>
	<g>
		<path class="st2" d="M67.6,179.9v-9.8H75v1.9h-5.3v2h4.6v1.9h-4.6v2.1h5.3v1.9H67.6z"/>
		<path class="st2" d="M81.6,180.1c-2.9,0-5-2.2-5-5v0c0-2.8,2.1-5.1,5.1-5.1c1.8,0,3,0.6,3.9,1.5l-1.4,1.6
			c-0.8-0.7-1.5-1.1-2.5-1.1c-1.7,0-2.8,1.4-2.8,3.1v0c0,1.7,1.2,3.1,2.8,3.1c1.1,0,1.8-0.4,2.6-1.1l1.4,1.4
			C84.6,179.4,83.5,180.1,81.6,180.1z"/>
		<path class="st2" d="M88.5,173.2l-1.5-1.2c1-1.3,1.9-2,3.7-2c2.1,0,3.4,1.2,3.4,3c0,1.6-0.8,2.5-2.6,3.8l-1.6,1.2h4.3v1.9h-7.3
			v-1.7l3.3-2.7c1.2-1,1.7-1.5,1.7-2.4c0-0.8-0.5-1.3-1.3-1.3C89.7,171.9,89.2,172.3,88.5,173.2z"/>
		<path class="st2" d="M52,196.7v-9.8h2.2v9.8H52z"/>
		<path class="st2" d="M61.1,196.7v-4.2c0-1-0.5-1.5-1.3-1.5c-0.8,0-1.3,0.5-1.3,1.5v4.2h-2.1v-7.5h2.1v1.1c0.5-0.6,1.1-1.2,2.2-1.2
			c1.6,0,2.5,1.1,2.5,2.8v4.9H61.1z"/>
		<path class="st2" d="M67.7,196.9c-1.1,0-2.2-0.3-3.2-1.1l0.9-1.4c0.8,0.6,1.7,0.9,2.4,0.9c0.6,0,0.9-0.2,0.9-0.6v0
			c0-0.5-0.7-0.6-1.6-0.9c-1.1-0.3-2.2-0.8-2.2-2.3v0c0-1.5,1.2-2.4,2.7-2.4c1,0,2,0.3,2.8,0.9l-0.8,1.5c-0.7-0.4-1.5-0.7-2-0.7
			c-0.5,0-0.8,0.2-0.8,0.5v0c0,0.4,0.7,0.6,1.5,0.9c1.1,0.4,2.3,0.9,2.3,2.2v0C70.6,196.1,69.3,196.9,67.7,196.9z"/>
		<path class="st2" d="M74.6,196.9c-1.3,0-2.2-0.5-2.2-2.3V191h-0.9v-1.8h0.9v-1.9h2.1v1.9h1.8v1.8h-1.8v3.2c0,0.5,0.2,0.7,0.7,0.7
			c0.4,0,0.7-0.1,1.1-0.3v1.7C75.9,196.7,75.4,196.9,74.6,196.9z"/>
		<path class="st2" d="M82.3,196.7v-0.8c-0.5,0.6-1.2,1-2.3,1c-1.4,0-2.6-0.8-2.6-2.3v0c0-1.6,1.2-2.4,3-2.4c0.8,0,1.3,0.1,1.8,0.3
			v-0.1c0-0.9-0.5-1.4-1.6-1.4c-0.8,0-1.4,0.2-2.1,0.4l-0.5-1.6c0.8-0.4,1.6-0.6,2.9-0.6c2.3,0,3.3,1.2,3.3,3.2v4.4H82.3z
			 M82.4,193.7c-0.4-0.2-0.8-0.3-1.4-0.3c-0.9,0-1.5,0.4-1.5,1v0c0,0.6,0.5,0.9,1.2,0.9c1,0,1.7-0.5,1.7-1.3V193.7z"/>
		<path class="st2" d="M91,196.7v-4.2c0-1-0.5-1.5-1.3-1.5c-0.8,0-1.3,0.5-1.3,1.5v4.2h-2.1v-7.5h2.1v1.1c0.5-0.6,1.1-1.2,2.2-1.2
			c1.6,0,2.5,1.1,2.5,2.8v4.9H91z"/>
		<path class="st2" d="M98.5,196.9c-2.3,0-3.9-1.7-3.9-3.9v0c0-2.1,1.6-3.9,3.9-3.9c1.4,0,2.3,0.5,3,1.3l-1.3,1.4
			c-0.5-0.5-1-0.8-1.7-0.8c-1.1,0-1.8,0.9-1.8,2v0c0,1.1,0.7,2.1,1.9,2.1c0.7,0,1.2-0.3,1.7-0.8l1.2,1.3
			C100.8,196.3,100,196.9,98.5,196.9z"/>
		<path class="st2" d="M109.9,193.7h-5.2c0.2,1,0.9,1.5,1.8,1.5c0.7,0,1.2-0.2,1.8-0.8l1.2,1.1c-0.7,0.9-1.7,1.4-3.1,1.4
			c-2.3,0-3.9-1.6-3.9-3.9v0c0-2.1,1.5-3.9,3.7-3.9c2.5,0,3.7,1.9,3.7,4.1v0C109.9,193.4,109.9,193.5,109.9,193.7z M106.3,190.8
			c-0.9,0-1.5,0.6-1.6,1.6h3.2C107.7,191.4,107.2,190.8,106.3,190.8z"/>
	</g>
</g>
<g>
	<g>
		<path class="st2" d="M135.4,222.4c-1.5,0-3-0.5-4.2-1.6l1.3-1.5c0.9,0.7,1.8,1.2,2.9,1.2c0.9,0,1.4-0.3,1.4-0.9v0
			c0-0.5-0.3-0.8-2-1.2c-2-0.5-3.2-1-3.2-3v0c0-1.8,1.4-3,3.4-3c1.4,0,2.6,0.4,3.6,1.2l-1.1,1.6c-0.9-0.6-1.7-1-2.5-1
			s-1.3,0.4-1.3,0.9v0c0,0.6,0.4,0.9,2.1,1.3c2,0.5,3.1,1.2,3.1,2.9v0C139,221.3,137.5,222.4,135.4,222.4z"/>
		<path class="st2" d="M147.6,219.2h-5.2c0.2,1,0.9,1.5,1.8,1.5c0.7,0,1.2-0.2,1.8-0.8l1.2,1.1c-0.7,0.9-1.7,1.4-3.1,1.4
			c-2.3,0-3.9-1.6-3.9-3.9v0c0-2.1,1.5-3.9,3.7-3.9c2.5,0,3.7,1.9,3.7,4.1v0C147.6,218.9,147.6,219.1,147.6,219.2z M144,216.3
			c-0.9,0-1.5,0.6-1.6,1.6h3.2C145.4,217,144.9,216.3,144,216.3z"/>
		<path class="st2" d="M152.8,222.4c-2.3,0-3.9-1.7-3.9-3.9v0c0-2.1,1.6-3.9,3.9-3.9c1.4,0,2.3,0.5,3,1.3l-1.3,1.4
			c-0.5-0.5-1-0.8-1.7-0.8c-1.1,0-1.8,0.9-1.8,2v0c0,1.1,0.7,2.1,1.9,2.1c0.7,0,1.2-0.3,1.7-0.8l1.2,1.3
			C155.1,221.9,154.3,222.4,152.8,222.4z"/>
		<path class="st2" d="M161.9,222.3v-1.1c-0.5,0.6-1.1,1.2-2.2,1.2c-1.6,0-2.5-1.1-2.5-2.8v-4.9h2.1v4.2c0,1,0.5,1.5,1.3,1.5
			s1.3-0.5,1.3-1.5v-4.2h2.1v7.5H161.9z"/>
		<path class="st2" d="M170.3,216.8c-1.4,0-2.3,0.9-2.3,2.6v2.8h-2.1v-7.5h2.1v1.5c0.4-1,1.1-1.7,2.4-1.7v2.2H170.3z"/>
		<path class="st2" d="M171.8,213.9V212h2.2v1.9H171.8z M171.9,222.3v-7.5h2.1v7.5H171.9z"/>
		<path class="st2" d="M178.6,222.4c-1.3,0-2.2-0.5-2.2-2.3v-3.6h-0.9v-1.8h0.9v-1.9h2.1v1.9h1.8v1.8h-1.8v3.2
			c0,0.5,0.2,0.7,0.7,0.7c0.4,0,0.7-0.1,1.1-0.3v1.7C179.8,222.2,179.3,222.4,178.6,222.4z"/>
		<path class="st2" d="M186.1,222.4c-0.6,1.5-1.2,2.1-2.5,2.1c-0.8,0-1.3-0.2-1.9-0.5l0.7-1.5c0.3,0.2,0.6,0.3,0.9,0.3
			c0.4,0,0.6-0.1,0.7-0.5l-2.9-7.5h2.3l1.7,5.1l1.6-5.1h2.2L186.1,222.4z"/>
		<path class="st2" d="M143.7,239.2c-3.1,0-5.2-2.1-5.2-5v0c0-2.8,2.2-5.1,5.1-5.1c1.8,0,2.8,0.5,3.9,1.3l-1.4,1.6
			c-0.8-0.6-1.4-1-2.6-1c-1.6,0-2.8,1.4-2.8,3.1v0c0,1.8,1.2,3.1,3,3.1c0.8,0,1.5-0.2,2-0.6v-1.4h-2.2v-1.9h4.3v4.3
			C146.9,238.5,145.5,239.2,143.7,239.2z"/>
		<path class="st2" d="M154.2,233.6c-1.4,0-2.3,0.9-2.3,2.6v2.8h-2.1v-7.5h2.1v1.5c0.4-1,1.1-1.7,2.4-1.7v2.2H154.2z"/>
		<path class="st2" d="M159.3,239.2c-2.3,0-4-1.7-4-3.9v0c0-2.2,1.7-3.9,4.1-3.9c2.3,0,4,1.7,4,3.9v0
			C163.4,237.5,161.7,239.2,159.3,239.2z M161.3,235.3c0-1.1-0.8-2.1-2-2.1c-1.2,0-1.9,0.9-1.9,2v0c0,1.1,0.8,2.1,2,2.1
			C160.6,237.4,161.3,236.5,161.3,235.3L161.3,235.3z"/>
		<path class="st2" d="M169.6,239.1V238c-0.5,0.6-1.1,1.2-2.2,1.2c-1.6,0-2.5-1.1-2.5-2.8v-4.9h2.1v4.2c0,1,0.5,1.5,1.3,1.5
			s1.3-0.5,1.3-1.5v-4.2h2.1v7.5H169.6z"/>
		<path class="st2" d="M178.1,239.2c-1.1,0-1.8-0.5-2.3-1.1v3.2h-2.1v-9.7h2.1v1.1c0.5-0.7,1.2-1.2,2.3-1.2c1.8,0,3.4,1.4,3.4,3.9v0
			C181.5,237.8,179.9,239.2,178.1,239.2z M179.4,235.3c0-1.2-0.8-2.1-1.8-2.1c-1,0-1.8,0.8-1.8,2.1v0c0,1.2,0.8,2.1,1.8,2.1
			C178.6,237.4,179.4,236.6,179.4,235.3L179.4,235.3z"/>
	</g>
</g>
<circle class="st4" cx="160" cy="45" r="18"/>
</svg>
