<?xml version="1.0" encoding="utf-8"?>
<!-- Generator: Adobe Illustrator 19.1.0, SVG Export Plug-In . SVG Version: 6.00 Build 0)  -->
<svg version="1.1" id="Layer_1" xmlns="http://www.w3.org/2000/svg" xmlns:xlink="http://www.w3.org/1999/xlink" x="0px" y="0px"
	 viewBox="0 0 320 320" style="enable-background:new 0 0 320 320;" xml:space="preserve">
<style type="text/css">
	.st0{fill:#757576;}
	.st1{fill:#FAA629;}
	.st2{fill:#9D9D9D;}
	.st3{fill-rule:evenodd;clip-rule:evenodd;fill:#FAA629;}
</style>
<g>
	<path class="st0" d="M157,318.6c-2,0-4-0.1-6-0.3l0.2-3c2,0.1,3.9,0.2,5.9,0.3L157,318.6z M163.1,318.6l-0.1-3c2,0,3.9-0.1,5.9-0.3
		l0.2,3C167.1,318.5,165.1,318.6,163.1,318.6z M145,317.8c-2-0.2-4-0.5-6-0.9l0.5-3c1.9,0.3,3.9,0.6,5.8,0.9L145,317.8z
		 M175.2,317.7l-0.4-3c1.9-0.2,3.9-0.5,5.8-0.9l0.5,3C179.2,317.2,177.2,317.5,175.2,317.7z M133,315.7c-2-0.4-3.9-0.9-5.9-1.5
		l0.8-2.9c1.9,0.5,3.8,1,5.7,1.5L133,315.7z M187.1,315.7l-0.7-2.9c1.9-0.4,3.8-0.9,5.7-1.5l0.8,2.9
		C191,314.7,189,315.2,187.1,315.7z M121.4,312.4c-1.9-0.6-3.8-1.3-5.7-2.1l1.1-2.8c1.8,0.7,3.7,1.4,5.6,2L121.4,312.4z
		 M198.7,312.4l-1-2.8c1.9-0.6,3.7-1.3,5.6-2l1.1,2.8C202.6,311,200.6,311.7,198.7,312.4z M110.1,308c-1.8-0.8-3.7-1.7-5.5-2.6
		l1.4-2.7c1.7,0.9,3.5,1.8,5.3,2.6L110.1,308z M210,307.9l-1.2-2.7c1.8-0.8,3.6-1.7,5.3-2.6l1.4,2.7
		C213.7,306.2,211.8,307.1,210,307.9z M99.3,302.4c-1.7-1-3.5-2.1-5.2-3.2l1.6-2.5c1.6,1.1,3.3,2.1,5,3.1L99.3,302.4z M220.8,302.4
		l-1.5-2.6c1.7-1,3.4-2,5-3.1l1.6,2.5C224.2,300.3,222.5,301.4,220.8,302.4z M89.1,295.9c-1.6-1.2-3.3-2.4-4.8-3.7l1.9-2.3
		c1.5,1.2,3.1,2.4,4.7,3.6L89.1,295.9z M230.9,295.8l-1.8-2.4c1.6-1.1,3.2-2.3,4.7-3.6l1.9,2.3C234.2,293.5,232.5,294.7,230.9,295.8
		z M79.6,288.3c-1.5-1.3-3-2.7-4.4-4.1l2.1-2.1c1.4,1.4,2.9,2.7,4.3,4L79.6,288.3z M240.4,288.3l-2-2.2c1.5-1.3,2.9-2.7,4.3-4
		l2.1,2.1C243.4,285.6,241.9,287,240.4,288.3z M71,279.8c-1.4-1.5-2.7-3-4-4.5l2.3-1.9c1.3,1.5,2.6,3,3.9,4.4L71,279.8z M249,279.8
		l-2.2-2c1.3-1.4,2.7-2.9,3.9-4.4l2.3,1.9C251.8,276.8,250.4,278.4,249,279.8z M63.2,270.6c-1.2-1.6-2.4-3.3-3.5-4.9l2.5-1.7
		c1.1,1.6,2.3,3.2,3.5,4.8L63.2,270.6z M256.8,270.6l-2.4-1.8c1.2-1.6,2.4-3.2,3.5-4.8l2.5,1.7C259.2,267.3,258.1,269,256.8,270.6z
		 M56.3,260.6c-1.1-1.7-2.1-3.5-3-5.2l2.6-1.4c0.9,1.7,1.9,3.4,3,5.1L56.3,260.6z M263.7,260.6l-2.6-1.6c1-1.7,2-3.4,3-5.1l2.6,1.4
		C265.8,257.1,264.7,258.8,263.7,260.6z M50.5,250c-0.9-1.8-1.7-3.7-2.5-5.5l2.8-1.2c0.8,1.8,1.6,3.6,2.4,5.4L50.5,250z
		 M269.5,249.9l-2.7-1.3c0.9-1.8,1.7-3.6,2.4-5.4l2.8,1.2C271.2,246.2,270.4,248.1,269.5,249.9z M45.8,238.9
		c-0.7-1.9-1.3-3.8-1.9-5.7l2.9-0.9c0.6,1.9,1.2,3.8,1.9,5.6L45.8,238.9z M274.2,238.7l-2.8-1c0.7-1.8,1.3-3.7,1.9-5.6l2.9,0.9
		C275.5,234.9,274.9,236.8,274.2,238.7z M42.3,227.3c-0.5-1.9-1-3.9-1.3-5.9l2.9-0.6c0.4,1.9,0.8,3.9,1.3,5.8L42.3,227.3z
		 M277.8,227.2l-2.9-0.7c0.5-1.9,0.9-3.8,1.3-5.8l2.9,0.6C278.7,223.2,278.3,225.2,277.8,227.2z M39.9,215.4c-0.3-2-0.6-4-0.8-6
		l3-0.3c0.2,2,0.4,3.9,0.7,5.9L39.9,215.4z M280.2,215.3l-3-0.4c0.3-1.9,0.5-3.9,0.7-5.9l3,0.3C280.7,211.3,280.5,213.3,280.2,215.3
		z M38.7,203.4c-0.1-2-0.2-4-0.2-6.1l3,0c0,2,0.1,4,0.2,5.9L38.7,203.4z M281.4,203.2l-3-0.1c0.1-1.9,0.1-3.9,0.1-5.9l0-0.3h3l0,0.2
		C281.5,199.2,281.5,201.2,281.4,203.2z M41.6,191.4l-3-0.1c0.1-2,0.2-4,0.4-6l3,0.3C41.9,187.5,41.7,189.4,41.6,191.4z M278.3,191
		c-0.1-2-0.3-3.9-0.4-5.9l3-0.3c0.2,2,0.4,4,0.5,6L278.3,191z M42.8,179.6l-3-0.4c0.3-2,0.6-4,1-6l2.9,0.6
		C43.4,175.8,43.1,177.7,42.8,179.6z M277.2,179.3c-0.3-1.9-0.6-3.9-1-5.8l2.9-0.6c0.4,2,0.8,4,1.1,6L277.2,179.3z M45.1,168.1
		l-2.9-0.7c0.5-1.9,1-3.9,1.6-5.8l2.9,0.9C46.1,164.3,45.6,166.2,45.1,168.1z M274.8,167.7c-0.5-1.9-1-3.8-1.6-5.7l2.9-0.9
		c0.6,1.9,1.1,3.9,1.6,5.8L274.8,167.7z M48.6,156.8l-2.8-1c0.7-1.9,1.4-3.8,2.2-5.7l2.8,1.2C50,153.1,49.2,154.9,48.6,156.8z
		 M271.3,156.4c-0.7-1.8-1.4-3.7-2.2-5.5l2.8-1.2c0.8,1.8,1.5,3.7,2.2,5.6L271.3,156.4z M53.2,145.9l-2.7-1.3
		c0.9-1.8,1.8-3.6,2.8-5.4l2.6,1.4C54.9,142.3,54,144.1,53.2,145.9z M266.7,145.6c-0.9-1.8-1.8-3.5-2.7-5.2l2.6-1.4
		c1,1.8,1.9,3.6,2.8,5.4L266.7,145.6z M58.8,135.5l-2.6-1.6c1-1.7,2.2-3.4,3.3-5.1l2.5,1.7C60.9,132.1,59.8,133.8,58.8,135.5z
		 M261,135.2c-1-1.7-2.1-3.3-3.2-4.9l2.5-1.7c1.1,1.6,2.2,3.4,3.3,5.1L261,135.2z M65.5,125.7l-2.4-1.8c1.2-1.6,2.5-3.2,3.8-4.7
		l2.3,1.9C67.9,122.6,66.7,124.1,65.5,125.7z M254.4,125.5c-1.2-1.6-2.4-3.1-3.7-4.6l2.3-1.9c1.3,1.5,2.6,3.1,3.8,4.7L254.4,125.5z
		 M73.1,116.7l-2.2-2c1.4-1.5,2.8-2.9,4.2-4.3l2.1,2.1C75.8,113.8,74.4,115.2,73.1,116.7z M246.8,116.5c-1.3-1.4-2.7-2.9-4.1-4.2
		l2.1-2.2c1.4,1.4,2.9,2.9,4.2,4.3L246.8,116.5z M81.5,108.4l-2-2.2c1.5-1.3,3.1-2.6,4.6-3.9l1.9,2.3
		C84.5,105.8,83,107.1,81.5,108.4z M238.3,108.2c-1.5-1.3-3-2.6-4.5-3.8l1.9-2.3c1.6,1.2,3.1,2.6,4.6,3.9L238.3,108.2z M90.7,101
		L89,98.6c1.6-1.2,3.3-2.3,5-3.4l1.6,2.5C94,98.8,92.3,99.9,90.7,101z M229,100.9c-1.6-1.1-3.2-2.3-4.9-3.3l1.6-2.5
		c1.7,1.1,3.4,2.2,5,3.4L229,100.9z M100.6,94.6L99.1,92c1.7-1,3.5-2,5.3-2.9l1.4,2.7C104.1,92.7,102.3,93.6,100.6,94.6z
		 M219.1,94.5c-1.7-1-3.4-1.9-5.2-2.8l1.4-2.7c1.8,0.9,3.6,1.9,5.3,2.9L219.1,94.5z M111.1,89.2l-1.2-2.7c1.8-0.8,3.7-1.6,5.6-2.4
		l1.1,2.8C114.7,87.6,112.9,88.4,111.1,89.2z M208.6,89.1c-1.8-0.8-3.6-1.6-5.5-2.3l1.1-2.8c1.9,0.7,3.8,1.5,5.6,2.4L208.6,89.1z
		 M122.1,84.9l-1-2.8c1.9-0.6,3.9-1.2,5.8-1.8l0.8,2.9C125.8,83.7,123.9,84.2,122.1,84.9z M197.6,84.8c-1.9-0.6-3.8-1.2-5.6-1.7
		l0.8-2.9c1.9,0.5,3.9,1.1,5.8,1.8L197.6,84.8z M133.5,81.7l-0.7-2.9c2-0.4,4-0.9,5.9-1.2l0.5,3C137.3,80.8,135.4,81.2,133.5,81.7z
		 M186.2,81.6c-1.9-0.4-3.9-0.8-5.8-1.2l0.5-3c2,0.3,4,0.7,5.9,1.2L186.2,81.6z M145.1,79.6l-0.4-3c2-0.2,4-0.5,6-0.6l0.2,3
		C149,79.2,147,79.4,145.1,79.6z M174.5,79.6c-1.9-0.2-3.9-0.4-5.9-0.6l0.2-3c2,0.1,4,0.3,6,0.6L174.5,79.6z M156.9,78.7l-0.1-3
		c2-0.1,4-0.1,6.1,0l-0.1,3C160.8,78.7,158.8,78.7,156.9,78.7z"/>
</g>
<g>
	<g>
		<path class="st1" d="M139.1,214.1h-4.7v-9.8h4.6c2,0,3.2,1,3.2,2.5v0c0,1.1-0.6,1.7-1.3,2.1c1.1,0.4,1.8,1.1,1.8,2.4v0
			C142.8,213.2,141.3,214.1,139.1,214.1z M140.1,207.2c0-0.6-0.5-1-1.4-1h-2.1v2.1h2C139.5,208.2,140.1,207.9,140.1,207.2
			L140.1,207.2z M140.6,211.1c0-0.7-0.5-1.1-1.6-1.1h-2.5v2.2h2.6C140.1,212.2,140.6,211.8,140.6,211.1L140.6,211.1z"/>
		<path class="st1" d="M148.7,214.1v-0.8c-0.5,0.6-1.2,1-2.3,1c-1.4,0-2.6-0.8-2.6-2.3v0c0-1.6,1.2-2.4,3-2.4c0.8,0,1.3,0.1,1.8,0.3
			v-0.1c0-0.9-0.5-1.4-1.6-1.4c-0.8,0-1.4,0.2-2.1,0.4l-0.5-1.6c0.8-0.4,1.6-0.6,2.9-0.6c2.3,0,3.3,1.2,3.3,3.2v4.4H148.7z
			 M148.8,211c-0.4-0.2-0.8-0.3-1.4-0.3c-0.9,0-1.5,0.4-1.5,1v0c0,0.6,0.5,0.9,1.2,0.9c1,0,1.7-0.5,1.7-1.3V211z"/>
		<path class="st1" d="M155.2,214.2c-1.1,0-2.2-0.3-3.2-1.1l0.9-1.4c0.8,0.6,1.7,0.9,2.4,0.9c0.6,0,0.9-0.2,0.9-0.6v0
			c0-0.5-0.7-0.6-1.6-0.9c-1.1-0.3-2.2-0.8-2.2-2.3v0c0-1.5,1.2-2.4,2.7-2.4c1,0,2,0.3,2.8,0.9l-0.8,1.5c-0.7-0.4-1.5-0.7-2-0.7
			c-0.5,0-0.8,0.2-0.8,0.5v0c0,0.4,0.7,0.6,1.5,0.9c1.1,0.4,2.3,0.9,2.3,2.2v0C158.1,213.5,156.9,214.2,155.2,214.2z"/>
		<path class="st1" d="M162.2,214.2c-1.3,0-2.2-0.5-2.2-2.3v-3.6h-0.9v-1.8h0.9v-1.9h2.1v1.9h1.8v1.8h-1.8v3.2
			c0,0.5,0.2,0.7,0.7,0.7c0.4,0,0.7-0.1,1.1-0.3v1.7C163.4,214,162.9,214.2,162.2,214.2z"/>
		<path class="st1" d="M165.5,205.7v-1.9h2.2v1.9H165.5z M165.5,214.1v-7.5h2.1v7.5H165.5z"/>
		<path class="st1" d="M173.4,214.2c-2.3,0-4-1.7-4-3.9v0c0-2.2,1.7-3.9,4.1-3.9c2.3,0,4,1.7,4,3.9v0
			C177.4,212.5,175.7,214.2,173.4,214.2z M175.3,210.3c0-1.1-0.8-2.1-2-2.1c-1.2,0-1.9,0.9-1.9,2v0c0,1.1,0.8,2.1,2,2.1
			C174.6,212.4,175.3,211.5,175.3,210.3L175.3,210.3z"/>
		<path class="st1" d="M183.7,214.1v-4.2c0-1-0.5-1.5-1.3-1.5s-1.3,0.5-1.3,1.5v4.2H179v-7.5h2.1v1.1c0.5-0.6,1.1-1.2,2.2-1.2
			c1.6,0,2.5,1.1,2.5,2.8v4.9H183.7z"/>
		<path class="st1" d="M131.4,230.9v-9.8h2.2v9.8H131.4z"/>
		<path class="st1" d="M140.5,230.9v-4.2c0-1-0.5-1.5-1.3-1.5c-0.8,0-1.3,0.5-1.3,1.5v4.2h-2.1v-7.5h2.1v1.1
			c0.5-0.6,1.1-1.2,2.2-1.2c1.6,0,2.5,1.1,2.5,2.8v4.9H140.5z"/>
		<path class="st1" d="M147.1,231c-1.1,0-2.2-0.4-3.2-1.1l0.9-1.4c0.8,0.6,1.7,0.9,2.4,0.9c0.6,0,0.9-0.2,0.9-0.6v0
			c0-0.5-0.7-0.6-1.6-0.9c-1.1-0.3-2.2-0.8-2.2-2.3v0c0-1.5,1.2-2.4,2.7-2.4c1,0,2,0.3,2.8,0.9l-0.8,1.5c-0.7-0.4-1.5-0.7-2-0.7
			c-0.5,0-0.8,0.2-0.8,0.5v0c0,0.4,0.7,0.6,1.5,0.9c1.1,0.3,2.3,0.9,2.3,2.2v0C150,230.3,148.7,231,147.1,231z"/>
		<path class="st1" d="M154,231c-1.3,0-2.2-0.5-2.2-2.3v-3.6h-0.9v-1.8h0.9v-1.9h2.1v1.9h1.8v1.8H154v3.2c0,0.5,0.2,0.7,0.7,0.7
			c0.4,0,0.7-0.1,1.1-0.3v1.7C155.2,230.8,154.7,231,154,231z"/>
		<path class="st1" d="M161.7,230.9v-0.8c-0.5,0.6-1.2,1-2.3,1c-1.4,0-2.6-0.8-2.6-2.3v0c0-1.6,1.2-2.4,3-2.4c0.8,0,1.3,0.1,1.8,0.3
			v-0.1c0-0.9-0.5-1.4-1.6-1.4c-0.8,0-1.4,0.2-2.1,0.4l-0.5-1.6c0.8-0.4,1.6-0.6,2.9-0.6c2.3,0,3.3,1.2,3.3,3.2v4.4H161.7z
			 M161.7,227.8c-0.4-0.2-0.8-0.3-1.4-0.3c-0.9,0-1.5,0.4-1.5,1v0c0,0.6,0.5,0.9,1.2,0.9c1,0,1.7-0.5,1.7-1.3V227.8z"/>
		<path class="st1" d="M170.3,230.9v-4.2c0-1-0.5-1.5-1.3-1.5s-1.3,0.5-1.3,1.5v4.2h-2.1v-7.5h2.1v1.1c0.5-0.6,1.1-1.2,2.2-1.2
			c1.6,0,2.5,1.1,2.5,2.8v4.9H170.3z"/>
		<path class="st1" d="M177.8,231c-2.3,0-3.9-1.7-3.9-3.9v0c0-2.1,1.6-3.9,3.9-3.9c1.4,0,2.3,0.5,3,1.3l-1.3,1.4
			c-0.5-0.5-1-0.8-1.7-0.8c-1.1,0-1.8,0.9-1.8,2v0c0,1.1,0.7,2.1,1.9,2.1c0.7,0,1.2-0.3,1.7-0.8l1.2,1.3
			C180.2,230.5,179.3,231,177.8,231z"/>
		<path class="st1" d="M189.3,227.9H184c0.2,1,0.9,1.5,1.8,1.5c0.7,0,1.2-0.2,1.8-0.8l1.2,1.1c-0.7,0.9-1.7,1.4-3.1,1.4
			c-2.3,0-3.9-1.6-3.9-3.9v0c0-2.1,1.5-3.9,3.7-3.9c2.5,0,3.7,1.9,3.7,4.1v0C189.3,227.5,189.3,227.7,189.3,227.9z M185.6,224.9
			c-0.9,0-1.5,0.6-1.6,1.6h3.2C187.1,225.6,186.5,224.9,185.6,224.9z"/>
	</g>
</g>
<g>
	<path class="st2" d="M176,21c0.6,0,1-0.5,1-1v-6c0-0.5-0.4-1-1-1s-1,0.5-1,1v6C175,20.5,175.4,21,176,21z"/>
	<path class="st2" d="M192,13c-0.6,0-1,0.5-1,1v6c0,0.5,0.4,1,1,1s1-0.5,1-1v-6C193,13.5,192.6,13,192,13z"/>
	<path class="st2" d="M192,5c-3.5,0-6.5,2-8,4.9C182.5,7,179.5,5,176,5s-6.5,2-8,4.9C166.5,7,163.5,5,160,5s-6.5,2-8,4.9
		C150.5,7,147.5,5,144,5s-6.5,2-8,4.9C134.5,7,131.5,5,128,5c-4.9,0-9,4-9,9v18c0,5,4.1,9,9,9c2.9,0,5.4-1.3,7-3.3V47
		c0,2.8,2.2,5,5,5s5-2.2,5-5v-6c3.1-0.3,5.6-2.2,7-4.8c1.5,2.9,4.5,4.9,8,4.9s6.5-2,8-4.9c1.5,2.9,4.5,4.9,8,4.9s6.5-2,8-4.9
		c1.5,2.9,4.5,4.9,8,4.9c4.9,0,9-4,9-9V14C201,9,196.9,5,192,5z M128,39c-3.8,0-7-3.2-7-7V14c0-3.9,3.2-7,7-7c3.9,0,7,3.1,7,7l0,0
		v18l0,0C135,35.8,131.9,39,128,39z M144,39c-0.4,0-0.6,0-1-0.1V47c0,1.7-1.4,3-3,3s-3-1.3-3-3V32V14c0-3.9,3.1-7,7-7s7,3.1,7,7l0,0
		v18l0,0C151,35.8,147.9,39,144,39z M159.6,39c-3.8-0.2-6.6-3.5-6.6-7.2V29c0-0.5,0.4-1,1-1h4c0.6,0,1,0.5,1,1v3c0,0.5,0.4,1,0.9,1
		c0.6,0.1,1.1-0.4,1.1-1v-3c0-1.7-1.4-3-3-3h-0.5c-2.5,0-4.5-2-4.5-4.5v-7.3c0-3.8,2.9-7,6.6-7.2c4-0.2,7.4,3,7.4,7l0,0v3
		c0,0.5-0.4,1-1,1h-4c-0.6,0-1-0.5-1-1v-3c0-0.5-0.4-1-0.9-1c-0.6-0.1-1.1,0.4-1.1,1v3c0,1.7,1.4,3,3,3h0.5c2.5,0,4.5,2,4.5,4.5V32
		l0,0C167,36,163.6,39.2,159.6,39z M175.6,39c-3.8-0.2-6.6-3.5-6.6-7.2V14.2c0-3.8,2.9-7,6.6-7.2c4-0.2,7.4,3,7.4,7l0,0v12
		c0,0.5-0.4,1-1,1h-4c-1.6,0-3,1.3-3,3v2c0,0.5,0.4,1,0.9,1c0.6,0.1,1.1-0.4,1.1-1v-2.3c0-0.5,0.4-1,1-1h4c0.6,0,1,0.5,1,1V32l0,0
		C183,36,179.6,39.2,175.6,39z M199,26c0,0.5-0.4,1-1,1h-4c-1.6,0-3,1.3-3,3v2c0,0.5,0.4,1,0.9,1c0.6,0.1,1.1-0.4,1.1-1v-2.3
		c0-0.5,0.4-1,1-1h4c0.6,0,1,0.5,1,1V32c0,4-3.4,7.2-7.4,7c-3.8-0.2-6.6-3.5-6.6-7.2V14.2c0-3.8,2.9-7,6.6-7.2c4-0.2,7.4,3,7.4,7V26
		z"/>
	<path class="st2" d="M144,13c-0.6,0-1,0.5-1,1v18c0,0.5,0.4,1,1,1s1-0.5,1-1V14C145,13.5,144.6,13,144,13z"/>
	<path class="st2" d="M128,13c-0.6,0-1,0.5-1,1v18c0,0.5,0.4,1,1,1s1-0.5,1-1V14C129,13.5,128.6,13,128,13z"/>
</g>
<g>
	<path class="st0" d="M130.6,276.2h-1.1v-3.9l-4.1-5.9h1.3l3.3,4.9l3.3-4.9h1.3l-4.1,5.9V276.2z"/>
	<path class="st0" d="M138,276.4c-2.2,0-3.8-1.7-3.8-3.8c0-2.1,1.6-3.8,3.8-3.8c2.2,0,3.8,1.7,3.8,3.8
		C141.8,274.7,140.2,276.4,138,276.4z M138,269.8c-1.6,0-2.6,1.2-2.6,2.8c0,1.6,1.1,2.8,2.7,2.8c1.6,0,2.7-1.2,2.7-2.8
		C140.7,271,139.5,269.8,138,269.8z"/>
	<path class="st0" d="M148.9,269h1.1v7.2h-1.1V275c-0.5,0.8-1.2,1.4-2.5,1.4c-1.8,0-2.8-1.2-2.8-2.9V269h1.1v4.2
		c0,1.3,0.7,2.2,2,2.2c1.2,0,2.2-0.9,2.2-2.3V269z"/>
	<path class="st0" d="M153.4,276.2h-1.1V269h1.1v1.9c0.5-1.2,1.6-2.1,3-2v1.2h-0.1c-1.6,0-2.9,1.1-2.9,3.3V276.2z"/>
	<path class="st0" d="M171.5,276.2h-1.2l-1.1-2.6h-5.3l-1.2,2.6h-1.1l4.5-9.9h1L171.5,276.2z M166.5,267.6l-2.2,5h4.5L166.5,267.6z"
		/>
	<path class="st0" d="M178.1,266.4h0.9l2.7,8.2l2.8-8.2h1.2l-3.5,9.9h-0.9l-2.7-8l-2.7,8H175l-3.5-9.9h1.2l2.8,8.2L178.1,266.4z"/>
	<path class="st0" d="M191,270.8c2.2,0.5,3.2,1.3,3.2,2.8c0,1.7-1.4,2.8-3.3,2.8c-1.6,0-2.8-0.5-4-1.6l0.7-0.8c1,0.9,2,1.4,3.4,1.4
		c1.3,0,2.2-0.7,2.2-1.7c0-0.9-0.5-1.4-2.5-1.9c-2.3-0.5-3.3-1.2-3.3-2.8c0-1.6,1.4-2.7,3.2-2.7c1.4,0,2.5,0.4,3.4,1.2l-0.6,0.9
		c-0.9-0.7-1.8-1.1-2.8-1.1c-1.3,0-2.1,0.7-2.1,1.6C188.3,269.8,188.8,270.3,191,270.8z"/>
	<path class="st0" d="M120.4,292.2c1,0,1.7-0.4,2.3-1l0.7,0.6c-0.7,0.8-1.6,1.4-3,1.4c-2,0-3.6-1.5-3.6-3.8c0-2.1,1.5-3.8,3.5-3.8
		c2.1,0,3.4,1.7,3.4,3.8c0,0.1,0,0.2,0,0.3h-5.7C118,291.4,119.1,292.2,120.4,292.2z M122.5,289c-0.1-1.3-0.9-2.5-2.3-2.5
		c-1.3,0-2.2,1.1-2.4,2.5H122.5z"/>
	<path class="st0" d="M126.6,293h-1.1v-7.2h1.1v1.3c0.5-0.8,1.2-1.4,2.5-1.4c1.8,0,2.8,1.2,2.8,2.9v4.5h-1.1v-4.2
		c0-1.3-0.7-2.2-2-2.2c-1.2,0-2.2,0.9-2.2,2.3V293z"/>
	<path class="st0" d="M139.5,285.8h1.2l-3.2,7.3h-1l-3.1-7.3h1.2l2.4,6L139.5,285.8z"/>
	<path class="st0" d="M142.3,284.2V283h1.2v1.2H142.3z M142.4,293v-7.2h1.1v7.2H142.4z"/>
	<path class="st0" d="M147.1,293H146v-7.2h1.1v1.9c0.5-1.2,1.6-2.1,3-2v1.2h-0.1c-1.6,0-2.9,1.1-2.9,3.3V293z"/>
	<path class="st0" d="M155,293.2c-2.2,0-3.8-1.7-3.8-3.8c0-2.1,1.6-3.8,3.8-3.8c2.2,0,3.8,1.7,3.8,3.8S157.2,293.2,155,293.2z
		 M155,286.6c-1.6,0-2.6,1.2-2.6,2.8c0,1.6,1.1,2.8,2.7,2.8c1.6,0,2.7-1.2,2.7-2.8C157.7,287.8,156.5,286.6,155,286.6z"/>
	<path class="st0" d="M161.8,293h-1.1v-7.2h1.1v1.3c0.5-0.8,1.2-1.4,2.5-1.4c1.8,0,2.8,1.2,2.8,2.9v4.5H166v-4.2
		c0-1.3-0.7-2.2-2-2.2c-1.2,0-2.2,0.9-2.2,2.3V293z"/>
	<path class="st0" d="M177.6,285.6c1.7,0,2.7,1.1,2.7,2.9v4.5h-1.1v-4.2c0-1.4-0.7-2.2-1.9-2.2c-1.1,0-2,0.8-2,2.2v4.2h-1.1v-4.3
		c0-1.4-0.7-2.2-1.9-2.2c-1.1,0-2,1-2,2.3v4.1h-1.1v-7.2h1.1v1.2c0.5-0.7,1.1-1.4,2.3-1.4c1.2,0,1.9,0.6,2.3,1.4
		C175.6,286.3,176.4,285.6,177.6,285.6z"/>
	<path class="st0" d="M185.8,292.2c1,0,1.7-0.4,2.3-1l0.7,0.6c-0.7,0.8-1.6,1.4-3,1.4c-2,0-3.6-1.5-3.6-3.8c0-2.1,1.5-3.8,3.5-3.8
		c2.1,0,3.4,1.7,3.4,3.8c0,0.1,0,0.2,0,0.3h-5.7C183.5,291.4,184.6,292.2,185.8,292.2z M188,289c-0.1-1.3-0.9-2.5-2.3-2.5
		c-1.3,0-2.2,1.1-2.4,2.5H188z"/>
	<path class="st0" d="M192,293h-1.1v-7.2h1.1v1.3c0.5-0.8,1.2-1.4,2.5-1.4c1.8,0,2.8,1.2,2.8,2.9v4.5h-1.1v-4.2c0-1.3-0.7-2.2-2-2.2
		c-1.2,0-2.2,0.9-2.2,2.3V293z"/>
	<path class="st0" d="M201,291c0,0.9,0.5,1.2,1.2,1.2c0.4,0,0.7-0.1,1.1-0.3v0.9c-0.4,0.2-0.8,0.3-1.3,0.3c-1.2,0-2-0.6-2-2v-4.4h-1
		v-1h1v-2.2h1.1v2.2h2.3v1H201V291z"/>
</g>
<circle class="st3" cx="160.3" cy="175.8" r="18"/>
<polygon class="st2" points="170.4,122.6 162,131.6 162,57 159,57 159,132 150.2,122.6 148,124.7 160.3,137.8 172.6,124.7 "/>
</svg>
